<svg width="164" height="120" viewBox="0 0 164 120" fill="none" xmlns="http://www.w3.org/2000/svg">
<path d="M90 44C90 68.3005 69.8528 88 45 88C20.1472 88 0 68.3005 0 44C0 19.6995 20.1472 0 45 0C69.8528 0 90 19.6995 90 44Z" fill="#FFD800"/>
<path d="M126 120H46C31.6406 120 20 108.359 20 94C20 80.9272 29.6481 70.1078 42.2122 68.2739C42.0718 66.8681 42 65.4423 42 64C42 40.2518 61.4756 21 85.5 21C103.804 21 119.468 32.1753 125.889 48.0002L126 48C146.987 48 164 64.1178 164 84C164 103.882 146.987 120 126 120Z" fill="white" fill-opacity="0.85"/>
</svg>
